<mxfile host="app.diagrams.net" agent="Mozilla/5.0 (Macintosh; Intel Mac OS X 10_15_7) AppleWebKit/537.36 (KHTML, like Gecko) Chrome/132.0.0.0 Safari/537.36" version="26.0.16">
  <diagram name="Page-1" id="aDNFobfc6PxBcDOUXSsT">
    <mxGraphModel dx="847" dy="1105" grid="1" gridSize="10" guides="1" tooltips="1" connect="1" arrows="1" fold="1" page="1" pageScale="1" pageWidth="850" pageHeight="1100" math="0" shadow="0">
      <root>
        <mxCell id="0" />
        <mxCell id="1" parent="0" />
        <mxCell id="4NJsy2WmSE00PBcX6tzT-3" style="edgeStyle=orthogonalEdgeStyle;rounded=0;orthogonalLoop=1;jettySize=auto;html=1;exitX=0;exitY=0.5;exitDx=0;exitDy=0;entryX=1;entryY=0.5;entryDx=0;entryDy=0;" edge="1" parent="1" source="4NJsy2WmSE00PBcX6tzT-1" target="4NJsy2WmSE00PBcX6tzT-2">
          <mxGeometry relative="1" as="geometry" />
        </mxCell>
        <mxCell id="4NJsy2WmSE00PBcX6tzT-1" value="b0d6" style="ellipse;whiteSpace=wrap;html=1;aspect=fixed;" vertex="1" parent="1">
          <mxGeometry x="210" y="260" width="80" height="80" as="geometry" />
        </mxCell>
        <mxCell id="4NJsy2WmSE00PBcX6tzT-2" value="f15f" style="ellipse;whiteSpace=wrap;html=1;aspect=fixed;" vertex="1" parent="1">
          <mxGeometry x="90" y="260" width="80" height="80" as="geometry" />
        </mxCell>
        <mxCell id="4NJsy2WmSE00PBcX6tzT-4" value="main" style="text;html=1;align=center;verticalAlign=middle;whiteSpace=wrap;rounded=0;" vertex="1" parent="1">
          <mxGeometry x="20" y="285" width="60" height="30" as="geometry" />
        </mxCell>
        <mxCell id="4NJsy2WmSE00PBcX6tzT-6" style="edgeStyle=orthogonalEdgeStyle;rounded=0;orthogonalLoop=1;jettySize=auto;html=1;exitX=0;exitY=0.5;exitDx=0;exitDy=0;entryX=0.5;entryY=1;entryDx=0;entryDy=0;" edge="1" parent="1" source="4NJsy2WmSE00PBcX6tzT-5" target="4NJsy2WmSE00PBcX6tzT-1">
          <mxGeometry relative="1" as="geometry" />
        </mxCell>
        <mxCell id="4NJsy2WmSE00PBcX6tzT-5" value="7d52" style="ellipse;whiteSpace=wrap;html=1;aspect=fixed;" vertex="1" parent="1">
          <mxGeometry x="280" y="400" width="80" height="80" as="geometry" />
        </mxCell>
        <mxCell id="4NJsy2WmSE00PBcX6tzT-7" value="fake-dev" style="text;html=1;align=center;verticalAlign=middle;whiteSpace=wrap;rounded=0;" vertex="1" parent="1">
          <mxGeometry x="170" y="430" width="60" height="30" as="geometry" />
        </mxCell>
        <mxCell id="4NJsy2WmSE00PBcX6tzT-8" value="&lt;meta charset=&quot;utf-8&quot;&gt;&lt;pre style=&quot;color: rgb(0, 0, 0); font-style: normal; font-variant-ligatures: normal; font-variant-caps: normal; font-weight: 400; letter-spacing: normal; orphans: 2; text-align: start; text-indent: 0px; text-transform: none; widows: 2; word-spacing: 0px; -webkit-text-stroke-width: 0px; text-decoration-thickness: initial; text-decoration-style: initial; text-decoration-color: initial; overflow-wrap: break-word; white-space: pre-wrap;&quot;&gt;0.1.0-alpha.21&lt;/pre&gt;" style="text;html=1;align=center;verticalAlign=middle;whiteSpace=wrap;rounded=0;" vertex="1" parent="1">
          <mxGeometry x="270" y="490" width="130" height="30" as="geometry" />
        </mxCell>
        <mxCell id="4NJsy2WmSE00PBcX6tzT-10" style="edgeStyle=orthogonalEdgeStyle;rounded=0;orthogonalLoop=1;jettySize=auto;html=1;exitX=0;exitY=0.5;exitDx=0;exitDy=0;entryX=1;entryY=0.5;entryDx=0;entryDy=0;" edge="1" parent="1" source="4NJsy2WmSE00PBcX6tzT-9" target="4NJsy2WmSE00PBcX6tzT-5">
          <mxGeometry relative="1" as="geometry" />
        </mxCell>
        <UserObject label="&lt;a style=&quot;box-sizing: border-box; background-color: rgb(255, 255, 255); text-decoration: none; font-family: -apple-system, &amp;quot;system-ui&amp;quot;, &amp;quot;Segoe UI&amp;quot;, &amp;quot;Noto Sans&amp;quot;, Helvetica, Arial, sans-serif, &amp;quot;Apple Color Emoji&amp;quot;, &amp;quot;Segoe UI Emoji&amp;quot;; font-size: 16px; font-style: normal; font-variant-ligatures: normal; font-variant-caps: normal; font-weight: 500; letter-spacing: normal; orphans: 2; text-align: left; text-indent: 0px; text-transform: none; widows: 2; word-spacing: 0px; -webkit-text-stroke-width: 0px; white-space: normal; color: var(--fgColor-default, var(--color-fg-default)) !important;&quot; tabindex=&quot;-1&quot; href=&quot;https://github.com/bcgov/zeva2/commit/8309c5457d0b6476842b45a23bca348d3da30458&quot; class=&quot;color-fg-default&quot; title=&quot;add feature 1 (#15)&quot; data-pjax=&quot;true&quot;&gt;add feature 1 (&lt;/a&gt;&lt;a style=&quot;box-sizing: border-box; background-color: rgb(255, 255, 255); color: var(--fgColor-accent, var(--color-accent-fg)); text-decoration: none; font-family: -apple-system, &amp;quot;system-ui&amp;quot;, &amp;quot;Segoe UI&amp;quot;, &amp;quot;Noto Sans&amp;quot;, Helvetica, Arial, sans-serif, &amp;quot;Apple Color Emoji&amp;quot;, &amp;quot;Segoe UI Emoji&amp;quot;; font-size: 16px; font-style: normal; font-variant-ligatures: normal; font-variant-caps: normal; font-weight: 500; letter-spacing: normal; orphans: 2; text-align: left; text-indent: 0px; text-transform: none; widows: 2; word-spacing: 0px; -webkit-text-stroke-width: 0px; white-space: normal;&quot; tabindex=&quot;-1&quot; href=&quot;https://github.com/bcgov/zeva2/pull/15&quot; data-hovercard-url=&quot;/bcgov/zeva2/pull/15/hovercard&quot; data-hovercard-type=&quot;pull_request&quot; data-url=&quot;https://github.com/bcgov/zeva2/issues/15&quot; data-permission-text=&quot;Title is private&quot; data-id=&quot;2895510244&quot; data-error-text=&quot;Failed to load title&quot; class=&quot;issue-link js-issue-link&quot;&gt;#15&lt;/a&gt;&lt;a style=&quot;box-sizing: border-box; background-color: rgb(255, 255, 255); text-decoration: none; font-family: -apple-system, &amp;quot;system-ui&amp;quot;, &amp;quot;Segoe UI&amp;quot;, &amp;quot;Noto Sans&amp;quot;, Helvetica, Arial, sans-serif, &amp;quot;Apple Color Emoji&amp;quot;, &amp;quot;Segoe UI Emoji&amp;quot;; font-size: 16px; font-style: normal; font-variant-ligatures: normal; font-variant-caps: normal; font-weight: 500; letter-spacing: normal; orphans: 2; text-align: left; text-indent: 0px; text-transform: none; widows: 2; word-spacing: 0px; -webkit-text-stroke-width: 0px; white-space: normal; color: var(--fgColor-default, var(--color-fg-default)) !important;&quot; tabindex=&quot;-1&quot; href=&quot;https://github.com/bcgov/zeva2/commit/8309c5457d0b6476842b45a23bca348d3da30458&quot; class=&quot;color-fg-default&quot; title=&quot;add feature 1 (#15)&quot; data-pjax=&quot;true&quot;&gt;)&lt;/a&gt;&lt;div&gt;8309&lt;/div&gt;" link="&lt;meta charset=&quot;utf-8&quot;&gt;&lt;a style=&quot;box-sizing: border-box; background-color: rgb(255, 255, 255); color: var(--fgColor-default, var(--color-fg-default)) !important; text-decoration: none; font-family: -apple-system, &amp;quot;system-ui&amp;quot;, &amp;quot;Segoe UI&amp;quot;, &amp;quot;Noto Sans&amp;quot;, Helvetica, Arial, sans-serif, &amp;quot;Apple Color Emoji&amp;quot;, &amp;quot;Segoe UI Emoji&amp;quot;; font-size: 16px; font-style: normal; font-variant-ligatures: normal; font-variant-caps: normal; font-weight: 500; letter-spacing: normal; orphans: 2; text-align: left; text-indent: 0px; text-transform: none; widows: 2; word-spacing: 0px; -webkit-text-stroke-width: 0px; white-space: normal;&quot; tabindex=&quot;-1&quot; href=&quot;https://github.com/bcgov/zeva2/commit/8309c5457d0b6476842b45a23bca348d3da30458&quot; class=&quot;color-fg-default&quot; title=&quot;add feature 1 (#15)&quot; data-pjax=&quot;true&quot;&gt;add feature 1 (&lt;/a&gt;&lt;a style=&quot;box-sizing: border-box; background-color: rgb(255, 255, 255); color: var(--fgColor-accent, var(--color-accent-fg)); text-decoration: none; font-family: -apple-system, &amp;quot;system-ui&amp;quot;, &amp;quot;Segoe UI&amp;quot;, &amp;quot;Noto Sans&amp;quot;, Helvetica, Arial, sans-serif, &amp;quot;Apple Color Emoji&amp;quot;, &amp;quot;Segoe UI Emoji&amp;quot;; font-size: 16px; font-style: normal; font-variant-ligatures: normal; font-variant-caps: normal; font-weight: 500; letter-spacing: normal; orphans: 2; text-align: left; text-indent: 0px; text-transform: none; widows: 2; word-spacing: 0px; -webkit-text-stroke-width: 0px; white-space: normal;&quot; tabindex=&quot;-1&quot; href=&quot;https://github.com/bcgov/zeva2/pull/15&quot; data-hovercard-url=&quot;/bcgov/zeva2/pull/15/hovercard&quot; data-hovercard-type=&quot;pull_request&quot; data-url=&quot;https://github.com/bcgov/zeva2/issues/15&quot; data-permission-text=&quot;Title is private&quot; data-id=&quot;2895510244&quot; data-error-text=&quot;Failed to load title&quot; class=&quot;issue-link js-issue-link&quot;&gt;#15&lt;/a&gt;&lt;a style=&quot;box-sizing: border-box; background-color: rgb(255, 255, 255); color: var(--fgColor-default, var(--color-fg-default)) !important; text-decoration: none; font-family: -apple-system, &amp;quot;system-ui&amp;quot;, &amp;quot;Segoe UI&amp;quot;, &amp;quot;Noto Sans&amp;quot;, Helvetica, Arial, sans-serif, &amp;quot;Apple Color Emoji&amp;quot;, &amp;quot;Segoe UI Emoji&amp;quot;; font-size: 16px; font-style: normal; font-variant-ligatures: normal; font-variant-caps: normal; font-weight: 500; letter-spacing: normal; orphans: 2; text-align: left; text-indent: 0px; text-transform: none; widows: 2; word-spacing: 0px; -webkit-text-stroke-width: 0px; white-space: normal;&quot; tabindex=&quot;-1&quot; href=&quot;https://github.com/bcgov/zeva2/commit/8309c5457d0b6476842b45a23bca348d3da30458&quot; class=&quot;color-fg-default&quot; title=&quot;add feature 1 (#15)&quot; data-pjax=&quot;true&quot;&gt;)&lt;/a&gt;" id="4NJsy2WmSE00PBcX6tzT-9">
          <mxCell style="ellipse;whiteSpace=wrap;html=1;aspect=fixed;" vertex="1" parent="1">
            <mxGeometry x="450" y="390" width="100" height="100" as="geometry" />
          </mxCell>
        </UserObject>
        <mxCell id="4NJsy2WmSE00PBcX6tzT-11" value="0.1.0-alpha.22" style="text;html=1;align=center;verticalAlign=middle;whiteSpace=wrap;rounded=0;" vertex="1" parent="1">
          <mxGeometry x="425" y="490" width="140" height="30" as="geometry" />
        </mxCell>
        <mxCell id="4NJsy2WmSE00PBcX6tzT-14" style="edgeStyle=orthogonalEdgeStyle;rounded=0;orthogonalLoop=1;jettySize=auto;html=1;exitX=0;exitY=0.5;exitDx=0;exitDy=0;entryX=1;entryY=1;entryDx=0;entryDy=0;" edge="1" parent="1" source="4NJsy2WmSE00PBcX6tzT-12" target="4NJsy2WmSE00PBcX6tzT-5">
          <mxGeometry relative="1" as="geometry" />
        </mxCell>
        <mxCell id="4NJsy2WmSE00PBcX6tzT-12" value="" style="ellipse;whiteSpace=wrap;html=1;aspect=fixed;" vertex="1" parent="1">
          <mxGeometry x="430" y="570" width="80" height="80" as="geometry" />
        </mxCell>
        <mxCell id="4NJsy2WmSE00PBcX6tzT-15" value="feature-1" style="text;html=1;align=center;verticalAlign=middle;whiteSpace=wrap;rounded=0;" vertex="1" parent="1">
          <mxGeometry x="260" y="600" width="60" height="30" as="geometry" />
        </mxCell>
      </root>
    </mxGraphModel>
  </diagram>
</mxfile>
